<svg xmlns="http://www.w3.org/2000/svg" viewBox="0 0 408.07 58.45"><defs><style>.cls-1{fill:#fff;}</style></defs><g id="Capa_2" data-name="Capa 2"><g id="Capa_1-2" data-name="Capa 1"><path class="cls-1" d="M57.74,29.22c0,7.49-.13,15,0,22.46.1,3.8-1.12,5.74-5.13,5.31a16.67,16.67,0,0,0-2,0c-7.58,0-7.58,0-7.6-7.63a23,23,0,0,0,0-2.49c-.11-1.07.49-2.54-1-3-1.89-.56-2.08,1.18-2.59,2.3a29.77,29.77,0,0,0-2.23,5.53c-1,4.45-3.68,5.3-7.93,5.45-5,.17-7.56-1.4-9.11-6.12-.84-2.54-.79-7.38-4.13-6.85-2.84.45-1.13,4.9-1.16,7.49,0,3.77-1.16,5.72-5.18,5.33a22.46,22.46,0,0,0-4.49,0C1.25,57.43,0,55.78,0,51.86Q.26,29.41,0,6.94C0,3.15,1,1.59,5.07,1.62c9.51.07,9.51-.11,13.22,8.67Q22.46,20.13,26.64,30c.5,1.15.6,2.86,2.4,2.71,1.41-.11,1.53-1.55,2-2.59,3.3-7.78,6.82-15.49,9.81-23.39,1.49-3.92,3.6-5.68,7.76-5a19.18,19.18,0,0,0,4.48,0c3.41-.3,4.81,1.07,4.73,4.59C57.62,13.92,57.74,21.57,57.74,29.22Z"/><path class="cls-1" d="M313.85,28.76c0-7.48.13-15-.06-22.45-.09-3.48,1.23-4.4,4.62-4.73,7.06-.69,12.15,1,14.83,8.24,1.3,3.52,3.76,6.62,5.72,9.89.8,1.34,1.84,2.52,3.58,2.15,2.18-.47,1.39-2.37,1.43-3.7.11-3.82.13-7.65,0-11.47-.11-3.52,1.18-5,4.95-5.06,9.91-.07,9.91-.22,9.91,9.42,0,13.47-.11,27,.07,40.41,0,4.08-1.36,5.33-5.45,5.66-6.6.54-11.16-1.14-13.76-7.67-1.46-3.66-3.93-6.92-6-10.34C333,37.78,332,36.5,330.2,37s-1.8,2.18-1.81,3.66c0,4-.08,8,0,12,.07,3.18-1.35,4.32-4.51,4.42-10,.35-10,.45-10-9.31Z"/><path class="cls-1" d="M132.38,57H113.9c-2.64,0-5.57.45-6.89-2.68-1.21-2.87.52-5.07,2.14-7.23,6.17-8.26,12.35-16.5,18.46-24.8,1-1.4,3-2.7,2.08-4.72-1.07-2.26-3.47-1.47-5.38-1.5-4.66-.07-9.33-.14-14,0-2.78.1-3.78-1-4-3.7C105.48,2,105.71,1.7,116,1.7q17.49,0,35,0c2.52,0,5.15-.2,6.48,2.59s-.31,4.83-1.77,6.81c-6.33,8.56-12.75,17-19.1,25.58-1,1.29-2.53,2.55-1.74,4.39.92,2.17,3.08,1.55,4.83,1.57,4.83.06,9.66.11,14.48,0,2.78-.07,3.88,1,3.82,3.79-.22,12.53,1.49,10.36-10,10.54C142.71,57,137.54,57,132.38,57Z"/><path class="cls-1" d="M64.42,29.39c0-7.82.1-15.64,0-23.46-.06-3.26,1.12-4.35,4.38-4.29,9,.18,18,.15,27,0,3,0,4.33,1,4,4.06a27.28,27.28,0,0,0,0,3c0,8.18.54,7.29-7.18,7.32-1.59,0-3.39-.53-4.58,1.17-1.5,2.13-.26,4.45,2.5,4.81S97,20.58,99,23.11s.39,6.13.72,9.23-1,4.67-4.26,4.36c-1.65-.16-3.33,0-5,0-2-.07-3.09.74-3,2.91s1,3.06,3,3.07a17.68,17.68,0,0,0,3,0c5-.83,6.7,1,6.39,6.18-.54,9.07.93,8.11-8.52,8.15-7,0-14-.32-21,.12-5,.32-6.27-1.61-6.06-6.23.31-7.15.08-14.31.08-21.47Z"/><path class="cls-1" d="M240.26,1.7c10.87.1,9.26-1.28,12.19,9.32,3.77,13.59,7.33,27.24,11.1,40.83,1,3.6.4,5.48-3.78,5.16a46.85,46.85,0,0,0-6.49,0c-2.6.16-4.1-.77-4.43-3.49-.48-4.07-2.86-5.67-6.91-5.2a30.5,30.5,0,0,1-5.49,0c-3-.21-4.93,1.13-5.29,4-.48,3.8-2.45,4.78-6.1,4.69-10.65-.26-10.72,1.21-7.63-9.79C221,34.64,224.34,22,227.78,9.32c2.07-7.61,2.07-7.62,10-7.62Z"/><path class="cls-1" d="M365.68,29.18c0-7.82.1-15.63-.06-23.44-.05-2.94.77-4.05,3.92-4.11,10.39-.2,10.36-.33,10.49,10,0,1.75-.78,4.19,1.28,4.93,2.55.9,3-2.06,4.19-3.44a12.06,12.06,0,0,0,2.23-3.28c3.16-7.58,9.1-9.13,16.55-8.17,4.1.53,4.79,1.34,2.47,4.83-4.23,6.36-8.46,12.73-13,18.87-2.15,2.9-2.12,5,0,7.91,4.54,6.13,8.78,12.5,13,18.87,2.26,3.41,1.46,4.23-2.56,4.94C396,58.52,390.76,55.12,387.08,48c-1.18-2.3-2.5-6.5-5.34-5.72-3.5,1-1.12,5.18-1.72,7.9-.48,2.16,1.26,5.47-1.3,6.33-3.72,1.26-7.92.94-11.82.08-1.78-.39-1.2-2.5-1.21-3.92C365.66,44.8,365.68,37,365.68,29.18Z"/><path class="cls-1" d="M164.83,29.14c0-3.16-.21-6.33,0-9.48C165.66,9.21,174.61.74,185.39,0,195.68-.63,205.76,7,208,16.78c.83,3.7.48,5.89-4.09,5.27a28,28,0,0,0-5.49,0c-2.49.16-4.2-.16-5.25-3.06-1.17-3.23-4.11-4.72-7.68-4.2a6.57,6.57,0,0,0-5.89,5.9,54.48,54.48,0,0,0,0,17.38,6.62,6.62,0,0,0,5.54,5.71c3.07.62,6.29-.21,7.27-3,1.57-4.51,4.71-4.15,8.21-4.12,8.78.08,9.7,1.58,5.66,9.6a21.91,21.91,0,0,1-41.54-9.11c-.07-2.66,0-5.32,0-8Z"/><path class="cls-1" d="M271,29.11c0-7.49.1-15,0-22.46-.07-3.59,1.2-5,4.94-5,9.78,0,9.78-.2,9.78,9.57,0,8.65.15,17.31-.07,26-.1,4.18,1.59,5.71,5.6,5.53,3.83-.16,7.67.11,11.49-.07,3.31-.16,4.27,1.3,4.36,4.44.26,9.92.36,9.92-9.48,9.92-6.83,0-13.67-.19-20.49.06-4.46.17-6.36-1.25-6.17-6C271.24,43.77,271,36.43,271,29.11Z"/><path class="cls-1" d="M307,18.68c0,4.33-.1,8.66,0,13,.1,3.05-1.24,4-4.18,4.07-10.55.38-10.55.47-10.55-10.3,0-6.15.11-12.31,0-18.46-.08-3.63.89-5.47,5.06-5.35,11,.32,9.59-1.08,9.68,9.58C307,13.69,307,16.19,307,18.68Z"/><path class="cls-1" d="M236.93,30.63c.68-1.58.55-3.95,3.06-3.79,2.36.14,2.54,2.35,2.71,4.05.19,1.92-1.37,2.48-3,2.45S236.94,32.51,236.93,30.63Z"/></g></g></svg>