<svg xmlns="http://www.w3.org/2000/svg" viewBox="0 0 287.05 287.85"><defs><style>.cls-1{fill:#f5dbce;}.cls-2{fill:#da7540;}.cls-3{fill:#fefefe;}</style></defs><g id="Capa_2" data-name="Capa 2"><g id="Capa_1-2" data-name="Capa 1"><path class="cls-1" d="M256.88,0c0,.26.05.53.06.79-2.57,2.66-5.91,1.82-9,1.83q-79.56.07-159.14,0c-17.12,0-34.25,0-51.38,0-2.59,0-5.4.49-7.49-1.78C30,.56,30,.28,30,0Z"/><path class="cls-2" d="M30,.84c2,.05,4,.15,6,.15Q143.45,1,251,1c2,0,4-.13,6-.2,18.41,1.62,30,13.66,30,32.07q.18,111.63,0,223.25c0,18.71-13.12,31.63-31.9,31.66q-111.63.17-223.26,0C13.19,287.74.1,274.51.07,255.82Q-.08,144.19.07,32.57C.09,14.72,12.06,2.27,30,.84Z"/><path class="cls-3" d="M174.07,179.91c0,12.65-.14,25.31.07,38,.08,4.82-2,5.87-6.47,6.56-12.17,1.85-20.24-2.06-24.72-13.9-2-5.22-5.63-9.78-8.41-14.7-1.53-2.69-3.46-4.7-6.76-3.79-3.13.87-2.84,3.67-2.83,6.19,0,6.83-.07,13.66,0,20.48.06,3.78-1.67,5.55-5.38,5.54s-7.33,0-11,0c-5.49-.07-6.59-1.18-6.63-6.88,0-6.83,0-13.66,0-20.48q0-27,0-53.95c0-6.34,1-7.31,7.19-7.4,15.75-.23,15.74-.22,23.74,13.51q4.64,8,9.34,15.92c1.45,2.45,3.46,4.28,6.49,3.58,3.22-.75,2.29-3.63,2.32-5.81.08-6.66,0-13.32,0-20,.05-5.87,1.27-7.11,7-7.21,3,0,6,0,9,0,6.09.07,7,1,7,6.91Q174.1,161.17,174.07,179.91Z"/><path class="cls-3" d="M185.92,180.39c0-13,.2-26-.1-39-.12-4.81,1.75-6.18,6.13-5.94,4,.23,8,.13,12,0,3.37-.08,4.88,1.4,4.83,4.77-.08,5,0,10,0,15,0,1.86,0,3.81,2.2,4.54s3.74-.63,4.94-2.39c4.22-6.18,8.54-12.31,12.66-18.56,1.53-2.31,3.31-3.46,6.15-3.36,4.66.15,9.32,0,14,0,1.82,0,3.82-.19,4.88,1.75s-.35,3.47-1.37,5c-7.51,11-14.89,22.08-22.65,32.89-2.59,3.6-2.49,6.19,0,9.72,7.54,10.56,14.78,21.34,22.08,32.06,1.17,1.72,3.19,3.38,1.85,5.77-1.19,2.14-3.53,1.25-5.43,1.6-12.65,2.31-21.71-2-27-14-1.39-3.14-3.86-5.8-5.83-8.68a3.49,3.49,0,0,0-4.34-1.52c-1.66.57-2.12,2-2.12,3.58,0,5.17-.18,10.34,0,15.49.16,4-1.66,5.31-5.41,5.15a117,117,0,0,0-12,0c-4,.22-5.63-1.19-5.56-5.44C186.06,206,185.92,193.21,185.92,180.39Z"/><path class="cls-3" d="M33,179.89c0-12.49,0-25,0-37.46,0-5.66,1.11-6.79,6.64-6.89,3,0,6,0,9,0,6.3.06,7.33,1.05,7.34,7.21,0,17.15,0,34.29,0,51.44,0,6.36,1.17,7.51,7.56,7.53,6.82,0,13.65.17,20.47-.05,4.45-.14,6.53,1.55,6.35,6.09-.14,3.65-.07,7.32,0,11s-1.55,5.54-5.38,5.53q-23.22-.09-46.44,0c-4.47,0-5.61-2.48-5.58-6.43C33.06,205.19,33,192.54,33,179.89Z"/><path class="cls-3" d="M161.08,86.7c0,3.66-.22,7.34.06,11s-.9,4.49-4.42,4.54c-3.77,0-4.85-1-4.72-4.79.24-6.82-.21-13.65-.1-20.47,0-3.1-1.06-3.84-4.06-3.94-17-.55-33.9,1.4-50.86,1.81-4.09.1-6.84,2.93-9,5.74-6.08,8-14,10.69-23.65,9.8-6.09-.56-12.28,1.11-18.34-.75-1.37-.42-2.76-.46-3.35,1.15a10.49,10.49,0,0,0-.08,7.79c.67,1.59,2.19.76,3.5.52,9.62-1.76,19.22-.45,28.78.52a17.91,17.91,0,0,1,13.31,7.93c3.4,4.93,7.66,7.29,14,6.59,5.59-.63,11.31,0,17-.24,3-.12,3.38,1.56,3,3.72s1.61,5.41-2.94,5.35c-7.82-.1-15.65.18-23.46-.07-5.81-.19-9.92-3.91-13-8.3-3.45-4.86-7.9-6.79-13.61-6.76-8.27,0-16.59-2-24.78.86a5,5,0,0,1-2.44-.22c-6.32-1.41-9.81-8.1-8.6-16.41,1.27-8.71,4.63-12.32,12-11.33,7.65,1,15.23,1,22.87.92,4.87,0,8.65-1.55,11.78-5.27a48.48,48.48,0,0,1,6.43-6.22c2.85-2.34,6-4.28,9.88-4.3,16.31-.09,32.54-2.42,48.87-1.73,2.32.09,4.65.19,7,.4,7.74.67,7.83.68,8.49,8.22.4,4.64.49,9.3.72,14Z"/><path class="cls-3" d="M131.1,102.46c0-5.83.15-11.66,0-17.48-.13-4.07,2.68-2.89,4.76-3s4.29-.55,4.2,3c-.21,8.32.08,16.65-.14,25-.08,3.27.92,4.12,4.18,4.21,13.83.41,27.58-1.55,41.4-1.15,5,.15,8.69-2.49,11.52-6.06,6.23-7.85,14.1-11.15,24-10.21,5.93.57,12-.68,17.89.94,1.25.35,2.88.7,3.51-.88a11.49,11.49,0,0,0,.21-7.84c-.62-1.91-2.54-1-3.93-.72-9.81,1.81-19.59.42-29.3-.7a16.31,16.31,0,0,1-12-7.34c-3.63-5.62-8.52-8-15.2-7.16-2.62.34-5.32,0-8,.07s-5.3.93-5.37-3.53c0-3.7.81-5.47,4.75-5.37,5,.13,10-.29,15,0,6.06.33,10.76,3.66,14,8.5a14.63,14.63,0,0,0,12.59,6.78c8.12.2,16.21,1.37,24.35-.45,5.5-1.24,9.39,1.24,11.37,6.51a20.44,20.44,0,0,1-1.36,17.38c-2.15,4-6.53,4.63-10.57,3.77-8.62-1.83-17.26-.43-25.88-.73-2.36-.08-4,1.37-5.54,3-2.58,2.6-5.16,5.22-7.89,7.65A20.28,20.28,0,0,1,185.54,122c-16.65-.3-33.23,1.77-49.9,1-3.52-.15-5.06-.64-4.78-4.59.37-5.3.09-10.65.09-16Z"/><path class="cls-3" d="M90.36,163.19c0,7.15-.07,14.31,0,21.46,0,3.8-1.62,5.5-5.41,5.39-4-.1-8-.09-12,0-3.45.07-5.37-1.35-5.37-4.95q0-22.22,0-44.43c0-3.54,1.72-5.17,5.22-5.13q6.24.06,12.48,0c3.56-.05,5.12,1.65,5.08,5.19C90.3,148.21,90.36,155.7,90.36,163.19Z"/></g></g></svg>