<svg xmlns="http://www.w3.org/2000/svg" viewBox="0 0 221.79 161.72"><defs><style>.cls-1{fill:#da7540;}.cls-2{fill:#7c7b38;}</style></defs><g id="Capa_2" data-name="Capa 2"><g id="Capa_1-2" data-name="Capa 1"><path class="cls-1" d="M141.93,116.33c0,12.66,0,25.32,0,38,0,5.51-1.34,6-6.79,6.85-12.11,1.9-20.28-1.92-24.82-13.79-2-5.36-5.75-10.08-8.67-15.12-1.42-2.46-3.19-4.56-6.32-3.64-2.87.86-2.52,3.53-2.51,5.87,0,6.83,0,13.66,0,20.49,0,4.15-1.86,6.15-6,6.07-3.5-.06-7,0-10.5,0-5.79,0-7.05-1.21-7.06-7.05q-.06-33.72,0-67.44c0-3,0-6,0-9,0-4.09,2-6.19,6.09-6.16h1c16.14-.32,16.14-.32,24.26,13.58,2.94,5,5.9,10,8.83,15.07,1.47,2.53,3.07,5.12,6.5,4.35,3.67-.84,2.69-4.11,2.72-6.61.1-6.83.14-13.66,0-20.49-.08-4,1.81-5.85,5.67-5.89s7.66,0,11.49,0c4.35,0,6.25,2.07,6.21,6.49C141.85,90.69,141.93,103.51,141.93,116.33Z"/><path class="cls-1" d="M152.92,116.2c0-12.82.16-25.65-.07-38.47-.09-4.84,1.81-6.65,6.47-6.4a103.3,103.3,0,0,0,11,0c4.83-.27,6.57,2,6.36,6.6s0,9.32-.06,14c0,1.76.18,3.39,2.12,4.06s3.09-.71,4.05-2.1c4.25-6.16,8.57-12.28,12.67-18.55,1.81-2.77,3.92-4.19,7.36-4,4.65.24,9.33,0,14,.09,4.91.13,6.29,2.68,3.54,6.76-7.63,11.3-15.29,22.6-23.19,33.71-2.32,3.26-2.27,5.57.06,8.82,7.65,10.69,15,21.61,22.37,32.47,1.18,1.73,3,3.41,1.83,5.83s-3.63,1.69-5.7,2.09c-13,2.48-22-2.18-27.39-14.29-1.27-2.83-3.49-5.26-5.33-7.83-1.06-1.49-2.13-3.15-4.42-2.28-1.95.74-2,2.43-1.95,4.15,0,4.83-.12,9.66,0,14.48.12,3.93-1.27,5.94-5.49,5.75s-8.66-.15-13,0c-3.89.13-5.34-1.6-5.31-5.4C153,142.51,152.93,129.35,152.92,116.2Z"/><path class="cls-1" d="M0,116.17c0-12.31,0-24.62,0-36.93,0-6.43,1.51-7.83,8-7.87,2.5,0,5,0,7.49,0,7,0,8.19,1.15,8.19,8q0,25.2,0,50.4c0,7,.81,7.79,7.71,7.81,6.65,0,13.31.16,20-.05,4.93-.15,7,2.15,7,6.83,0,3.66.07,7.32-.09,11s-2.1,5.74-6,5.73c-15.47,0-30.94,0-46.41,0C.81,161,0,157.61,0,153.6Z"/><path class="cls-1" d="M128.79,23c0,4.32-.1,8.66,0,13,.13,4.11-2.86,2.74-4.88,2.87s-4.35.58-4.35-3c0-7-.71-14-.53-20.94.11-4.36-1.57-5-5.49-5.14C97.4,9.17,81.33,11.2,65.2,11.26c-3.7,0-6.43,2.19-8.4,4.79-7.07,9.34-16.45,12.27-27.7,11.1-4.93-.51-10,.67-14.89-.78C12.88,26,11,25.55,10.3,27.44a9.61,9.61,0,0,0-.13,6.86c.73,1.89,2.58.92,4,.68,9.65-1.64,19.27-.44,28.83.66a18.11,18.11,0,0,1,13.18,8.2c3.24,4.82,7.42,7.09,13.53,6.4,5.42-.61,11,.11,16.46-.25,4-.26,3.81,2,3.69,4.62-.1,2.38.8,5-3.45,4.85-7.47-.27-15,0-22.44,0-6.29,0-10.73-3.53-14-8.3a15.26,15.26,0,0,0-13.61-6.87c-7.94.11-15.89-1.32-23.84.77-3.75,1-7.22-.72-9.57-4-3.6-5-3.49-16.73.44-21.39,2.71-3.22,6.61-3.86,10.5-3,8.45,1.8,16.92.59,25.39.67,2.38,0,4-1.25,5.61-2.82,2.84-2.81,5.67-5.63,8.65-8.28A17.23,17.23,0,0,1,64.8,1.67c19.46-.39,38.88-2.1,58.38-1.38C126.89.43,128,1.33,128,5c0,6,.63,12,1,17.92Z"/><path class="cls-2" d="M98.24,38.75c0-5.82.14-11.65,0-17.47-.15-4.41,3-3,5.14-3.15s4.68-.79,4.54,3.15c-.28,8.15,0,16.31-.29,24.46-.1,3.28.54,4.53,4.24,4.6,13.5.29,26.9-1.75,40.39-1.18C157.87,49.4,162,46,165.3,42c5.23-6.42,11.5-9.39,20-9,7.27.3,14.61-.89,21.84.94,1.26.32,2.26.13,2.7-1.37.71-2.45,1.1-4.9-.05-7.3-.73-1.52-1.91-.61-3-.43-10.29,1.71-20.55.74-30.73-.76a16.36,16.36,0,0,1-11.5-7.29c-3.43-5.21-7.87-7.79-14.27-7-2.94.39-6.05-.39-9,.14-4.09.73-5.17-.68-5.32-4.59-.14-3.49.29-5.35,4.34-5a46.92,46.92,0,0,0,9.48-.09c9.64-1.16,16.8,2.57,22.1,10.49a10.16,10.16,0,0,0,8.52,4.48c8.92.22,17.79,2.12,26.8-.23,5.79-1.51,10.56,2.16,12,8.47a28,28,0,0,1,.47,7.92c-.64,9.52-5.61,13.48-15,11.69-8-1.52-15.92-.49-23.87-.56-2.87,0-5,1.87-6.65,4-7.57,9.46-17.06,13.37-29.35,12.16-7.35-.73-14.9.92-22.37,1.09-7.31.16-14.63-.26-21.95-.29-2.42,0-2.61-1.34-2.59-3.2,0-5.82,0-11.64,0-17.46Z"/><path class="cls-1" d="M34.85,98.71c0-7.15.12-14.3-.06-21.44-.1-4,1.61-5.89,5.54-5.9,4.16,0,8.31,0,12.47,0,3.43,0,5.37,1.59,5.39,5.08.09,15,.17,29.92.15,44.88,0,3.28-1.61,5.28-5.21,5.28-4.15,0-8.31.16-12.46.18s-6-1.78-5.89-6.12C35,113.35,34.85,106,34.85,98.71Z"/></g></g></svg>