<svg xmlns="http://www.w3.org/2000/svg" viewBox="0 0 287.9 287.88"><defs><style>.cls-1{fill:#3f3f41;}.cls-2{fill:#9e9e9f;}.cls-3{fill:#fefefe;}</style></defs><g id="Capa_2" data-name="Capa 2"><g id="Capa_1-2" data-name="Capa 1"><path class="cls-1" d="M0,28.51v-2c1.31-6.14,2.16-12.3,6.66-17.39C13,2,20.93,0,30,0Q140.57.08,251.2,0c4.82,0,9.62.17,14.44.44,10,.56,22.88,13.08,22.18,24.59,0,.66,0,1.33,0,2q0,116.37.08,232.74c0,11.14-4.82,19-13.87,24.81-5,3.23-10.87,3.15-16.43,3.16Q144,288,30.36,287.88c-11,0-20.25-3.19-26.38-12.94C.71,269.75.67,263.91.5,258.09Q.5,146.24.47,34.4C.47,32.44,1,30.4,0,28.51Z"/><path class="cls-2" d="M.78,258.54l-.45.21L0,258.38V28.51c1.57,1.07,1,2.71,1,4.11Q1,144.34,1,256.07C1,256.89.85,257.72.78,258.54Z"/><path class="cls-3" d="M174.72,179.71c0,12.5,0,25,0,37.48,0,5.54-1.24,6-6.77,6.83-11.85,1.72-19.95-1.84-24.36-13.64-2.06-5.51-5.89-10.37-8.92-15.53-1.47-2.51-3.47-4.19-6.53-3.27-2.89.87-2.69,3.46-2.7,5.79,0,6.83-.09,13.66,0,20.48.07,4.19-1.68,6.2-5.94,6.07-3.66-.11-7.34-.14-11,0-4.3.17-6.08-2-6.08-6q0-38.47,0-76.95c0-4.13,2.08-5.86,6.19-6.05,16.25-.77,16.24-.84,24.47,13.2,3.19,5.45,6.44,10.87,9.59,16.34,1.46,2.54,3.54,4.28,6.45,3.64,3.34-.74,2.57-3.8,2.59-6.21,0-6.66,0-13.33,0-20,0-5.61,1.21-6.82,6.65-6.93,3.16-.06,6.33-.06,9.49,0,5.5.09,6.8,1.34,6.82,6.78C174.75,154.4,174.72,167.06,174.72,179.71Z"/><path class="cls-3" d="M186.05,179.39q0-18.46,0-36.93c0-7.08.46-7.5,7.73-7.51,3.33,0,6.66.12,10,0,3.76-.17,5.52,1.2,5.33,5.21-.24,4.81-.07,9.64-.05,14.47,0,2.05.18,4.12,2.59,4.82s3.65-.84,4.83-2.58c4.19-6.19,8.54-12.29,12.59-18.57a6.77,6.77,0,0,1,6.63-3.36c4.32.15,8.65,0,13,.05,2,0,4.08-.3,5.34,1.8,1.36,2.3-.48,3.75-1.54,5.31-7.48,11-14.9,22-22.6,32.85-2.42,3.4-2.32,5.94.08,9.31,7.72,10.82,15.15,21.84,22.62,32.84.95,1.4,2.66,2.68,1.64,4.85-1.1,2.36-3.28,1.66-5.17,2-12.82,2.43-22.07-1.83-27.43-14.06-1.11-2.54-3.12-4.69-4.68-7-1.31-2-2.62-4.26-5.44-3.3s-2.44,3.62-2.45,5.95c0,4.65-.1,9.32,0,14,.09,3.23-1.35,4.52-4.47,4.47-4.33-.08-8.66-.2-13,0s-5.62-1.68-5.6-5.62C186.1,205.35,186.05,192.37,186.05,179.39Z"/><path class="cls-3" d="M33.48,179.62q0-18.7,0-37.43c0-6.07,1.16-7.17,7.37-7.24,2.66,0,5.33,0,8,0,6.5.07,7.6,1.12,7.62,7.54,0,16.8,0,33.6,0,50.4,0,7.58.76,8.35,8.2,8.36,6.66,0,13.31.11,20,0,4.38-.1,6.55,1.55,6.35,6.13-.17,3.65-.06,7.32,0,11s-1.65,5.58-5.41,5.57c-15.47,0-30.94,0-46.4,0-4.4,0-5.71-2.4-5.69-6.37C33.52,204.91,33.48,192.26,33.48,179.62Z"/><path class="cls-3" d="M161.73,83c0,5.16-.2,10.32.07,15.46.2,3.95-2.37,3.19-4.58,3.19s-4.68.84-4.55-3.15a200.72,200.72,0,0,0-.46-21.93c-.22-2.9-.79-3.88-3.94-4-17-.55-33.89,1.45-50.84,1.82-4.25.09-7.08,3.12-9.34,6C82.36,87.88,75,90.67,65.85,90c-6.44-.47-13,1-19.37-.8-1.26-.34-2.87-.61-3.39,1.08a11.63,11.63,0,0,0,0,7.85c.75,1.84,2.26.67,3.45.44,9.46-1.87,18.91-.36,28.32.4a18.44,18.44,0,0,1,14.1,8.43c3.13,4.64,7.15,6.86,13.06,6.25s11.63-.13,17.45-.22c2,0,4.1.2,3.14,2.82-.78,2.13,2.09,6.26-3.16,6.22-7.65-.08-15.31.11-23,0C90.4,122.33,86.24,118.51,83,114c-3.49-4.86-8-6.72-13.68-6.66-8.09.09-16.15-1.58-24.31.67-4.41,1.22-8-1.69-10-5.82a18.55,18.55,0,0,1-1.29-10.73C35.09,81.78,39,78.71,48.7,80.54c8,1.52,15.91.42,23.86.26a7.74,7.74,0,0,0,5.92-3.26C85.6,68.69,94.28,65,106.14,64.92c16.59-.06,33.19-1.62,49.84-1,3.55.13,5.13.8,4.91,4.64-.28,4.8-.07,9.63-.07,14.45Z"/><path class="cls-3" d="M131.76,102.1c0-5.82.22-11.65-.08-17.45-.21-4,2.32-3.07,4.5-3.18,2.48-.13,4.44-.23,4.32,3.44-.27,8,.07,16-.16,24-.1,3.48.5,5,4.53,4.84,13.62-.6,27.25-.84,40.88-1.12a14,14,0,0,0,11.18-5.66c6.49-8.41,14.91-11.66,25.33-10.68,5.77.54,11.64-.66,17.38,1,1.1.33,2.7.88,3.31-1,.82-2.58,1.23-5.19.12-7.79-.76-1.79-2.24-1-3.45-.79-9.79,2-19.56.55-29.28-.45a17.31,17.31,0,0,1-12.83-7.83c-3.48-5.22-8-7.66-14.35-6.79-2.61.36-5.32,0-8,.07-5.3.15-6.69-1.59-5.95-6.91.25-1.79,1.22-1.72,2.34-1.74,6.15-.11,12.33-.53,18.45-.13,5.86.38,10.08,4.19,13.31,8.79a14,14,0,0,0,11.82,6.25c8.27.21,16.51,1.52,24.81-.4,5.72-1.32,10,1.75,11.78,7.45a21.18,21.18,0,0,1-1.25,15.57c-2.12,4.67-6.62,5.61-11,4.68-8.62-1.81-17.24-.44-25.85-.73-2.62-.09-4.24,1.62-5.9,3.27-3.88,3.87-7.5,8.06-12.48,10.63a20,20,0,0,1-9.65,2.18c-16.63-.28-33.21,1.74-49.87,1-3.52-.16-4.55-1-4.37-4.49.28-5.31.07-10.65.07-16Z"/><path class="cls-3" d="M90.94,162.36c0,7.15-.11,14.3,0,21.45.09,4-1.57,5.86-5.58,5.78s-8,0-12,0c-3.63,0-5.53-1.54-5.51-5.4q.1-21.94,0-43.89c0-3.53,1.74-5.26,5.14-5.31,4.33-.07,8.65,0,13,0,3.53.05,5,2,4.92,5.43C90.87,147.73,90.94,155,90.94,162.36Z"/></g></g></svg>