<svg xmlns="http://www.w3.org/2000/svg" viewBox="0 0 221.55 161.53"><defs><style>.cls-1{fill:#3f3f41;}</style></defs><g id="Capa_2" data-name="Capa 2"><g id="Capa_1-2" data-name="Capa 1"><path class="cls-1" d="M69.15,116.12q0-19,0-38c0-5.42,1.35-6.76,6.69-6.89,16.32-.4,16.31-.4,24.61,13.72,3.11,5.3,6.26,10.58,9.36,15.89,1.35,2.32,3.15,4.11,6,3.49,3.2-.7,2.44-3.54,2.46-5.75.06-7,.12-14,0-21-.09-4.47,2-6.42,6.31-6.38,3.33,0,6.66,0,10,0,5.86.06,7.37,1.49,7.39,7.41q.06,31.47,0,62.94c0,4.33,0,8.66,0,13s-1.88,6.27-6.41,6.34c-16.86.28-16.87.39-25.43-14.09q-4.44-7.5-8.83-15c-1.35-2.32-3.07-4.12-6-3.39-3.07.78-2.6,3.45-2.61,5.74,0,6.83,0,13.65,0,20.48,0,4.36-1.92,6.45-6.38,6.27-3.66-.15-7.33-.13-11,0-4.45.14-6.25-1.89-6.2-6.34C69.24,141.76,69.15,128.94,69.15,116.12Z"/><path class="cls-1" d="M152.93,115.87c0-13,.12-26-.06-38.94-.06-4.07,1.37-5.84,5.46-5.69s8.33.14,12.48,0,5.67,1.69,5.49,5.73c-.21,4.82,0,9.65-.07,14.47,0,2,.38,3.78,2.39,4.46,2.2.74,3.27-1,4.32-2.55,4.22-6.17,8.54-12.28,12.6-18.56a7.19,7.19,0,0,1,7.05-3.57c4.32.19,8.65,0,13,.06,2.12,0,4.46-.41,5.62,2.1,1,2.21-.39,3.81-1.51,5.44-7.43,10.83-14.73,21.74-22.37,32.41-2.51,3.51-2.74,6.08-.11,9.72,7.59,10.5,14.77,21.29,22.09,32,1.3,1.9,3.12,3.8,1.68,6.31-1.33,2.33-3.84,1.32-5.88,1.69-12.41,2.24-21.45-1.71-26.59-13.7-1.15-2.7-3.29-5-5-7.41-1.22-1.69-2.09-4.2-4.86-3.38s-2.37,3.24-2.36,5.42c0,4.66-.1,9.32,0,14,.11,3.58-1.33,5.21-5,5.09-4.49-.14-9-.15-13.47,0-3.73.13-4.95-1.58-4.92-5.13C153,142.49,152.93,129.18,152.93,115.87Z"/><path class="cls-1" d="M0,116C0,103.5,0,91,0,78.53c0-6,1.3-7.2,7.38-7.26,3.16,0,6.33.08,9.49,0,4.62-.14,6.54,1.9,6.5,6.62-.15,17.14-.07,34.29-.06,51.43,0,7.36.91,8.23,8.42,8.24,6.66,0,13.31.06,20,0,4.33-.05,6.51,1.73,6.3,6.28-.18,3.82-.07,7.66,0,11.48s-1.8,5.59-5.45,5.6c-15.64,0-31.29,0-46.93,0C1.2,160.9,0,158.34,0,154.43.06,141.61,0,128.8,0,116Z"/><path class="cls-1" d="M98.84,9.67c-11.3.49-22.59,1-33.89,1.45-3.71.14-6.38,2.27-8.35,4.86-7,9.17-16.16,12.1-27.23,11.05-5.27-.5-10.64.64-15.89-.85-1.11-.32-2.75-.85-3.35,1-.77,2.42-1.28,4.9,0,7.28.9,1.67,2.38.64,3.57.42,9.65-1.78,19.26-.34,28.83.59A18.18,18.18,0,0,1,56.1,43.93c3.14,4.72,7.21,6.8,13.09,6.23s11.64,0,17.46-.25c4.1-.16,2.93,2.69,3,4.75s1,4.78-3.06,4.69c-7.63-.18-15.27.15-22.91.07C57,59.35,52.59,55.2,49,50.23c-2.55-3.54-5.87-5.62-10-5.73-8.59-.24-17.18-1.88-25.8.36-5.33,1.38-9.93-1.41-12-6.54a21.19,21.19,0,0,1-1-9.83C1.06,18.51,5.74,15,15.57,16.9c8.11,1.55,16.27.33,24.4.23,2,0,3.23-1.5,4.55-2.75,3.15-3,6.2-6.05,9.49-8.83A15.88,15.88,0,0,1,64.06,1.64C83.85,1.21,103.6-.65,123.43.24c2.71.12,4.5.36,4.5,3.59,0,10.47,1.21,20.9.81,31.41-.19,5.15-3.64,3-6,3.39-2.76.51-3.64-.6-3.58-3.52.16-7-.22-14-.2-21,0-3.36-1.15-4.74-4.69-4.55C109.16,9.88,104,9.67,98.84,9.67Z"/><path class="cls-1" d="M98.13,38.16c0-5.66.23-11.34-.08-17-.21-3.95,2.27-3.33,4.47-3.16s5.31-1.44,5.17,3.05c-.26,8.48-.18,17-.45,25.46-.1,2.83.78,3.58,3.62,3.67,13.83.45,27.57-1.66,41.4-1.17,5.41.19,9.4-3.09,12.64-7,5.19-6.33,11.38-9.61,19.91-9.18,7.26.36,14.61-.93,21.84.88,1.29.32,2.42.31,2.89-1a11.66,11.66,0,0,0,.2-7.36c-.46-1.49-1.75-1-2.94-.74-10.11,1.85-20.22.77-30.26-.51a16,16,0,0,1-11.73-6.9c-3.88-5.94-9-8.46-16-7.54-2.45.33-5,0-7.48.07-4.47.2-7-3.78-5.28-8.12C136.65,0,137.83.33,138.9.32c6-.07,12-.35,18-.06,6.17.31,10.36,4.37,13.72,9,3,4.21,7,5.92,11.9,6,8.44.17,16.82,1.58,25.32-.49,5.19-1.27,9.53,2.35,11.08,7.82a23,23,0,0,1,.57,8.43c-.91,10.14-5.73,13.67-15.77,11.72-7.76-1.52-15.6-.37-23.39-.37-2.89,0-4.85,2.16-6.51,4.22-7.5,9.35-17,13-29,11.87-7.54-.68-15.25.89-22.89,1.07-7,.17-14-.27-21-.23-2.48,0-3.08-.9-3-3.19.13-6,0-12,0-18Z"/><path class="cls-1" d="M58,99.1c0,7.15-.15,14.3.06,21.45.13,4.34-1.82,6.09-5.91,6.06s-8,0-12,0-5.59-1.84-5.56-5.85c.12-14.64.08-29.27,0-43.91,0-3.77,1.67-5.56,5.35-5.57,4.33,0,8.65-.08,13,0,3.37.08,5.12,1.79,5.08,5.35C57.93,84.13,58,91.61,58,99.1Z"/></g></g></svg>