<svg xmlns="http://www.w3.org/2000/svg" viewBox="0 0 405.21 227.88"><defs><style>.cls-1{fill:#da7540;}.cls-2{fill:#7c7b38;}.cls-3{fill:#da7541;}.cls-4{fill:#f0f0e9;}</style></defs><g id="Capa_2" data-name="Capa 2"><g id="Capa_1-2" data-name="Capa 1"><path class="cls-1" d="M237.24,37.4c0,10.34-.08,20,0,29.65,0,3-.86,3.94-4,4-13.14.22-13.26.33-13.11-12.65.15-12.33-.67-24.62-1-36.93-.08-3.42-1.58-4.06-4.55-4.13-26-.61-51.9.52-77.8,2.43-4.47.33-9,.81-13.45.33-6.59-.71-11.7,1.74-16.26,6A121.47,121.47,0,0,0,96.51,36.58C89,45.58,79.4,49.29,67.93,49.23c-10.32,0-20.64.13-31,.29-4.56.07-8.9-1-13.27-2-3.32-.78-5.56,0-5.8,3.89-.08,1.31-.55,2.61-.63,3.92-.59,9.15.63,10,9.34,8.65A92,92,0,0,1,50,63.22c9.41.94,18.95.35,28.33,2,9.91,1.79,18.1,6.32,24.17,14.52A82.64,82.64,0,0,0,108.57,87,15.44,15.44,0,0,0,121,92.25c13.13-.37,26.28-.29,39.42-.6,3.47-.09,4.94.52,4.9,4.54-.14,13,0,13-12.85,13-10.66,0-21.32-.16-32,.21-9.69.34-17.46-3.3-24-10-1.63-1.66-3.52-3.21-4.68-5.17-6.26-10.49-16.14-12.94-27.36-13-7.65-.06-15.3-.76-23-.9a56.94,56.94,0,0,0-16.26,1.84C12.66,85.5,2.35,77.73.43,63.71A48.82,48.82,0,0,1,2.64,41.57C5,34.48,10,31.24,16.93,30.24a27.84,27.84,0,0,1,9.94.34C42.41,34,58,31.67,73.6,31.43c3,0,5.21-1.86,7.28-3.9C86.45,22,91.68,16.2,97.8,11.29c7.25-5.81,15.23-8.91,24.8-8.64,20,.57,39.84-2.47,59.8-2.62C199.21-.1,216,.27,232.82.37c2.52,0,2.41,1.6,2.5,3.33C236,15.16,236.62,26.62,237.24,37.4Z"/><path class="cls-2" d="M198,62.25c0,8.66.11,17.32-.06,26,0,3,.75,3.91,3.88,4,20.51.76,40.93-1,61.36-2.13,7.45-.42,14.86,1.09,22.38-.45a26,26,0,0,0,11.13-5.1c5.41-4.22,9.9-9.4,14.61-14.33,6.52-6.82,14.46-9.75,23.72-9.76,12.47,0,24.94-.29,37.41-.14,3.27,0,6.52,1.17,9.78,1.83,2.66.54,4.6.11,4.89-3.14.17-2,.79-3.93.9-5.91.45-7.91-1-9.21-8.59-7.68-11.26,2.27-22.54,1-33.82.31-6.13-.38-12.3-.2-18.39-1.37-9.87-1.88-18.16-6.24-24.29-14.4-1.79-2.39-3.74-4.67-5.73-6.91a16.21,16.21,0,0,0-13.66-5.8c-9.64.41-19.31.11-29,.42-2.48.09-3.3-.5-3.38-2.85-.11-3.65-.28-7.31-.64-10.95-.26-2.65.75-3.35,3.32-3.49,12-.64,23.94-.28,35.9,0,6.56.14,12.1,3.45,16.87,7.79,2.58,2.35,5.36,4.73,7.14,7.65C320,25.94,329.55,28.24,340.37,28.4c5.82.08,11.63.54,17.44.85,7.33.4,14.55.21,21.76-1.76,13.16-3.6,23.73,4.57,25.34,19.38a45.7,45.7,0,0,1-2.3,20.66c-2.86,8-7.44,11.46-15.91,11.9a24.57,24.57,0,0,1-7-.26C364.23,75.43,348.58,78,333,77.93c-3.75,0-6.65,1.77-9.19,4.35-4.21,4.27-8.49,8.47-12.7,12.74-9.66,9.78-21.75,13.61-35,12.69-12.4-.86-24.62.46-36.88,1.16-18.32,1-36.63.25-54.94.39-2.79,0-3.76-.94-3.72-3.76q.41-34.95.57-69.92c0-2.42.87-3,3.19-3.12,13.85-.75,13.85-.81,13.85,12.8v17Z"/><path class="cls-2" d="M57.22,199.25c0,7.32-.18,14.65.07,22,.14,4-1.42,5.53-5.26,5a8.16,8.16,0,0,0-1,0c-8.27,0-8.23,0-8.42-8.43,0-1.53.83-3.82-1.21-4.34-2.32-.6-2,2.09-2.86,3.34a13.31,13.31,0,0,0-1,2.28c-3,7.35-5.22,8.47-13.11,7.18-3.1-.5-3-3.18-4.1-5.05-1.56-2.58-1.41-7.95-4.28-7.5-3.51.56-1.42,5.34-1.57,8.22-.16,3.21-1.23,4.4-4.47,4.35-11.51-.2-9.88,1.1-9.93-9.75C0,203.41.2,190.26,0,177.12,0,173,1,171,5.57,171.2c10.62.4,8.08-1.2,12.2,8.05,2.83,6.36,5.39,12.85,8.13,19.26.62,1.45.76,3.68,2.81,3.65,1.77,0,1.84-2.17,2.4-3.46,3.38-7.76,6.62-15.58,10-23.36,1.59-3.71,12.08-5.91,15.09-3.23,1.33,1.17,1.06,2.71,1.06,4.18C57.23,183.94,57.22,191.6,57.22,199.25Z"/><path class="cls-1" d="M356.11,198.8c0,7.66-.09,15.32,0,23,.05,3.14-1,4.27-4.3,4.58-7,.64-12.32-.76-15-8.13-1.11-3.07-3.24-5.79-5-8.62-.93-1.49-1.62-3.66-3.95-3.17-2.56.55-1.75,2.86-1.79,4.55-.09,3.5-.13,7,0,10.49.12,3.33-1.09,4.76-4.63,4.84-10,.22-10,.35-10-9.87,0-13.16.12-26.32-.07-39.47-.06-4.34,1.51-5.58,5.81-5.86,6.24-.4,10.47,1.25,13,7.29,1.46,3.5,3.82,6.62,5.75,9.92.93,1.6,1.81,3.56,4,3s1.4-2.74,1.44-4.27c.11-3.66,0-7.32.06-11,0-3.18,1.27-5.12,4.8-4.77a8.34,8.34,0,0,0,1,0c8.79-.11,8.79-.11,8.79,8.53Z"/><path class="cls-2" d="M131.72,226.25c-6.15,0-12.31,0-18.46,0-2.6,0-5.57.68-7-2.39s.55-5.37,2.23-7.64c6-8.14,12.14-16.24,18.14-24.41,1-1.37,3.09-2.6,1.9-4.69-1.11-1.93-3.28-1.21-5-1.24q-7-.1-14,0c-2.74,0-3.74-1.16-3.93-3.88-.73-10.7-.81-10.7,10.07-10.7,11.32,0,22.63,0,33.94,0,2.56,0,5.17-.05,6.49,2.62s-.09,4.79-1.63,6.85q-9.69,13-19.34,26c-.84,1.13-2.36,2.2-1.42,3.92.84,1.55,2.45,1.45,4,1.45,4.66,0,9.33.18,14-.07,3.54-.19,5,.81,5.16,4.64.29,9.58.46,9.57-9.1,9.57Z"/><path class="cls-2" d="M64.06,198.64c0-7.65.1-15.3,0-22.94-.06-3,.58-4.57,4.1-4.49,8.81.21,17.62.18,26.44,0,3.57-.07,4.83,1.44,4.51,4.78-.08.83,0,1.66,0,2.5,0,7.23,0,7.2-7.32,7.35-2.19,0-5-.73-4.9,3.08.12,3.42,2.74,2.49,4.75,2.78,2.48.36,6.17-1.45,7.1,1.76a21.85,21.85,0,0,1-.09,11.32c-.39,1.52-2.13,1.29-3.45,1.3l-6,0c-1.67,0-2.31,1-2.35,2.55s.28,3,2.19,3.32c.49.08,1,0,1.49.09,2.69.48,6.33-1.48,7.92,1.19,1.77,3,.5,6.82.59,10.28.05,2.17-1.33,2.71-3.3,2.7-9.47-.05-19-.1-28.43,0-2.85,0-3.25-1.38-3.23-3.71C64.1,214.6,64.06,206.62,64.06,198.64Z"/><path class="cls-2" d="M253.92,226.25c-3.62.72-7.07,0-7.57-5.48-.21-2.19-2-2.9-4-2.92-2.66,0-5.33.08-8,0-2.85-.12-4.59,1.3-4.86,3.92-.46,4.36-3.13,4.62-6.66,4.58-10.42-.12-9.84.71-7.07-9.4,3.68-13.45,7.44-26.88,10.88-40.4,1-4,2.91-5.4,7-5.29,18,.45,13.28-2.53,18.2,14,3.28,11,6,22.11,9,33.17C262.94,226.26,263,226.25,253.92,226.25Z"/><path class="cls-1" d="M363,199.27c0-7.83.12-15.65-.06-23.48-.08-3.5,1.21-4.65,4.67-4.56,11.54.28,9.46-1.25,9.68,9.38,0,1,0,2,0,3a2.46,2.46,0,0,0,1.32,2.49c1.35.56,2.11-.4,2.81-1.42,2.44-3.57,4.87-7.15,7.41-10.65,1.77-2.44,13-4.05,15.29-2.23,1.83,1.46.75,2.94-.21,4.34-4.33,6.31-8.55,12.69-13,18.89-2,2.71-2,4.84,0,7.58,4.31,5.91,8.31,12.05,12.44,18.09.91,1.34,2.43,2.55,1.45,4.41-.88,1.68-2.65.91-4.05,1.17-7.24,1.29-12.61-1-15.64-8a8.57,8.57,0,0,0-1.69-2.46c-1.49-1.56-1.92-5.13-4.78-4.14-2.38.82-1.24,3.83-1.28,5.88-.22,10,1.23,8.32-8.85,8.77-4.46.19-5.79-1.21-5.58-5.61C363.21,213.6,363,206.43,363,199.27Z"/><path class="cls-2" d="M163.34,197.34c-.53-7.12.07-15.29,7-21.58C176.64,170,184,168.31,192,171s12.82,8.52,14.68,16.81c.66,2.93-.41,4.05-3.25,4-2.49,0-5,0-7.48,0A3.73,3.73,0,0,1,191.9,189c-1.45-3.55-4.42-5.61-8.39-4.54-3.81,1-5.56,3.9-5.5,7.9.07,4.66-.07,9.32.06,14a6.68,6.68,0,0,0,5.53,6.79c3.25.76,6.4-.25,7.59-3.32,1.39-3.62,3.71-4.2,6.91-3.73,2.86.42,7-1.62,8.36,1.12,1.57,3-.69,6.71-2.43,9.74a21.88,21.88,0,0,1-24.44,10.21c-9.05-2.28-15.85-10.81-16.24-20.45C163.25,204.08,163.34,201.41,163.34,197.34Z"/><path class="cls-1" d="M269.14,198.89c0-7.65.09-15.3,0-22.95-.06-3.44,1.36-4.95,4.76-4.66a2.67,2.67,0,0,0,.49,0c9.4-.2,9.4-.2,9.4,9.09,0,8.82.12,17.64-.05,26.45-.08,3.84,1.3,5.52,5.21,5.33,3.65-.19,7.34.16,11-.1,4.05-.28,5.15,1.55,5.15,5.3,0,8.9.15,8.9-8.55,8.9-7.49,0-15-.13-22.46.06-3.69.09-5-1.29-4.95-5C269.27,213.87,269.14,206.38,269.14,198.89Z"/><path class="cls-3" d="M305,188.1c0,4.33,0,8.66,0,13,0,2.86-1.23,4.08-4.22,4.23-10.49.52-10.49.62-10.49-9.87,0-6.49.1-13,0-19.48-.07-3.38,1.17-4.7,4.67-4.76C305,171,305,170.92,305,181.1Z"/><path class="cls-4" d="M241,200.3c-.28,1.76-1.26,2.85-2.95,2.72s-3.18-1.13-2.71-3.22c.35-1.54.71-3.51,2.83-3.44C240.57,196.45,240.39,198.75,241,200.3Z"/></g></g></svg>