<svg xmlns="http://www.w3.org/2000/svg" viewBox="0 0 405.42 228.02"><defs><style>.cls-1{fill:#fff;}</style></defs><g id="Capa_2" data-name="Capa 2"><g id="Capa_1-2" data-name="Capa 1"><path class="cls-1" d="M237.49,41.63q.57,13,0,25.95c-.12,2.55-.87,3.59-3.5,3.46-4.32-.22-9.82,1.38-12.65-.71s-.7-7.94-.87-12.13q-.72-18-1.06-35.91c-.06-3.58-1.27-4.73-4.94-4.81-26.66-.59-53.24.66-79.81,2.6-3.32.24-6.73.73-10,.22-8.22-1.31-14.09,2.61-19.5,7.87-3.95,3.83-8,7.6-11.64,11.68-6.84,7.61-15.76,9.37-25.31,9.52-10.16.16-20.31.16-30.47.37-4.9.1-9.57-1.06-14.26-2.13-3.22-.75-5,.23-5.47,3.66-.48,3.81-1,7.6-.1,11.41.45,2,1.29,3.52,3.73,2.76,11.42-3.52,23.08-2.36,34.68-1.67,8.44.51,17,.15,25.28,2.32a37.31,37.31,0,0,1,21.18,14c1.49,2,3.11,3.9,4.72,5.8a17.29,17.29,0,0,0,14.84,6.54c12.8-.49,25.63-.23,38.44-.48,3.28-.07,4.66.58,4.67,4.29,0,13.07.18,13-12.82,13.07-11,0-22-.09-33,.21-10.8.3-19.65-4.32-25.29-12.66-8.55-12.63-20-16.27-34.29-15.68-7.93.33-15.91-1.2-23.92-.73a44.14,44.14,0,0,0-9.8,1.58C15.12,85.29,5.62,80.34,2,69.19-1.52,58.37-.28,47.67,4.84,37.74c3.6-7,10.88-8.5,17.75-7.29,16.57,2.9,33.12,1.81,49.71,1.32,3.78-.11,6.56-1.72,9.18-4.3,6.16-6.06,11.81-12.69,18.91-17.76A35.09,35.09,0,0,1,122.76,3c17.31.56,34.53-1.92,51.82-2.52C193.73-.2,212.86.89,232,.52c2.85-.05,3.69,1,3.79,3.73C236.25,16.71,236.91,29.17,237.49,41.63Z"/><path class="cls-1" d="M181.43,71.82c0-11.82.06-23.64-.05-35.46,0-2.76.81-3.65,3.68-3.72,13.33-.35,13.37-.45,13.32,13s.1,27-.44,40.45c-.22,5.41,1.66,6.48,6.58,6.57,19.83.34,39.58-1.19,59.35-2.33,7.1-.41,14.13.92,21.35-.33a25.8,25.8,0,0,0,13.52-6.77c4.65-4.28,9-8.85,13.45-13.38,6-6.21,13.49-8.92,22-9.1q16.72-.37,33.45-.63a46.07,46.07,0,0,1,13.76,2.11c4.16,1.23,5.89-.48,6.33-4.34.14-1.33.25-2.66.34-4,.55-8.79-.45-9.76-8.68-8.16-11.44,2.21-22.89.76-34.33.19-7.14-.35-14.29-.29-21.3-2.16A37.29,37.29,0,0,1,303,30c-1.4-1.86-2.87-3.67-4.36-5.45-4.07-4.85-8.87-7.5-15.62-7.08-9.29.58-18.64.11-28,.46-2.86.11-3.47-1-3.54-3.3-.14-4.32-1.87-9.55,0-12.7S259.1.62,263.11.49c9-.28,18-.23,26.93.09C297,.84,302.71,4.4,307.66,9A45.22,45.22,0,0,1,315,17.19c4.77,7.46,11.77,10.8,20.15,11,11.8.28,23.56,2,35.39,1.18a40,40,0,0,0,7.85-1.29c13.47-3.8,24,2.63,26.35,16.52a45.2,45.2,0,0,1-1.45,21.71c-3.13,9.73-8.11,13.58-18.37,13.32-8.77-.23-17.31-3-26.25-2.19a105.22,105.22,0,0,1-18.94.42c-8.52-.72-14.79,2.46-19.94,8.86-1.77,2.2-3.92,4.08-5.86,6.15-11.17,11.94-25,16.37-41.09,14.83-10.17-1-20.29.44-30.39,1.16-19.14,1.37-38.28.4-57.42.63-3.16,0-4.25-.86-4.18-4.2.22-11.15.08-22.31.08-33.47Z"/><path class="cls-1" d="M57.5,199c0,7.32-.22,14.65.07,21.95.18,4.47-1.54,6.14-5.82,5.53a2.77,2.77,0,0,0-.5,0c-9,0-8.27.68-8.34-8.39,0-1.56,1.24-4.13-1.47-4.51-2.18-.31-1.94,2.24-2.68,3.58a20.1,20.1,0,0,0-.93,2.3c-2.68,6.75-6.77,8.81-13.69,7-2.45-.64-2.34-2.92-3.34-4.54-1.68-2.73-1.59-8.44-4.47-7.95-3.4.57-1,5.6-1.41,8.64-.34,2.64-1.23,3.75-4,3.92-10.8.69-10.8.77-10.8-10q0-19.2,0-38.42c0-6.47.12-6.63,6.33-6.58,9.15.06,7.58-1.27,11.42,7.68,2.94,6.86,5.78,13.76,8.67,20.65.45,1.05.65,2.47,2,2.6,1.76.16,1.93-1.55,2.42-2.69,3.26-7.63,6.72-15.18,9.61-22.94,1.52-4.09,3.67-5.59,8.06-5.42,8.81.34,8.82.09,8.82,9.13Z"/><path class="cls-1" d="M311.87,198.45c0-7.32.14-14.64-.05-21.95-.1-3.58,1.08-4.81,4.79-5.16,6.71-.63,11.51.94,14.17,7.73,1.43,3.66,4,6.89,5.93,10.35.81,1.4,1.83,2.46,3.54,2.2,2.24-.34,1.56-2.22,1.59-3.57.07-4,.11-8,0-12-.09-3.07,1-4.5,4.29-4.66,10.26-.5,10.26-.6,10.26,9.63,0,13.13-.13,26.27.07,39.4.06,4.3-.94,6-5.79,6.21-6.5.31-10.67-1.51-13.22-7.64-1.44-3.49-3.74-6.63-5.71-9.89-.86-1.42-1.82-3.08-3.84-2.43-1.82.58-1.47,2.39-1.49,3.84,0,3.83,0,7.65,0,11.47,0,2.89-1,4.56-4.41,4.5-11.87-.23-10,1-10.07-9.61C311.82,210.75,311.87,204.6,311.87,198.45Z"/><path class="cls-1" d="M132,226.44c-6.49,0-13,0-19.48,0-2.34,0-4.77.29-6.08-2.33s.13-4.84,1.61-6.84c6.22-8.43,12.53-16.8,18.76-25.23,1-1.4,3-2.73,1.91-4.77s-3.24-1.24-5-1.28c-4.66-.11-9.33-.1-14-.05-2.65,0-3.94-.87-3.89-3.78.21-12.61-1.34-10.58,10-10.68s22.64,0,34,0c2.6,0,5.14.08,6.52,2.66s-.22,4.83-1.69,6.81c-6.43,8.69-12.95,17.32-19.4,26-.85,1.14-2.25,2.24-1.36,4s2.47,1.42,4,1.42c5,0,10,.11,15,0,3-.08,4.16.95,4.1,4.05-.23,12.35,1.19,9.93-9.95,10.13C142,226.52,137,226.44,132,226.44Z"/><path class="cls-1" d="M81.38,226.44c-4.49,0-9-.13-13.48.05-2.78.11-3.83-.81-3.82-3.67q.15-23.72,0-47.43c0-2.67.77-4,3.67-3.95q13.72.15,27.46,0c2.68,0,4.12.86,3.91,3.73-.09,1.16,0,2.33,0,3.49C99,186.36,100.21,186,92,186c-2.12,0-5-.93-5,2.94s3,2.62,5.06,3c2.31.4,5.88-1.4,6.7,1.44a23.82,23.82,0,0,1,0,11.83c-.29,1.24-1.9,1.06-3.06,1.07-1.83,0-3.66,0-5.49,0s-3.16.46-3.21,2.78,1.15,3,3.33,3.24c9.41.83,9.3.87,8.94,10.47-.1,2.81-1,3.8-3.82,3.7C90.71,226.32,86,226.44,81.38,226.44Z"/><path class="cls-1" d="M238.57,171.47c10.66,0,9.37-1.12,12.26,9.35,3.67,13.28,7.22,26.59,10.8,39.89,1.47,5.45,1.26,5.7-4.25,5.73a39.52,39.52,0,0,0-5,0c-3.35.47-5-1-5.4-4.2s-2.3-4.55-5.49-4.38c-2.16.12-4.33.07-6.49,0-2.87-.08-4.88.87-5.25,4-.43,3.69-2.49,4.71-6.15,4.6-11.47-.33-10.45,1.16-7.58-9.66,3.35-12.68,6.84-25.32,10.31-38,2-7.43,2.07-7.42,9.73-7.43Z"/><path class="cls-1" d="M363,199.08c0-7.66.1-15.32,0-23-.07-3.4,1.06-4.77,4.61-4.69,12.12.24,9.88-1.12,10.15,10.05,0,1.69-1,4.1,1.3,4.84s2.72-1.92,3.82-3.21a14.76,14.76,0,0,0,2.5-3.71c3.12-7.4,9-8.83,16.21-8,3.94.48,4.69,1.54,2.42,5-4,6.12-8.07,12.22-12.42,18.1-2.34,3.16-2.47,5.65-.07,8.87,4.37,5.87,8.4,12,12.43,18.09,2.47,3.75,1.8,4.85-2.67,4.95a45.64,45.64,0,0,0-5.49.05c-3.86.54-6.21-1.16-8.05-4.4-1.64-2.88-3.72-5.51-5.62-8.25-.74-1.05-1.27-2.63-2.92-2.21-2,.52-1.37,2.38-1.46,3.78s0,2.66,0,4c0,7,0,7.05-7,7-8.23,0-7.66,1-7.66-7.87Q363,208.82,363,199.08Z"/><path class="cls-1" d="M163.76,198.76c-.59-8.7.07-16.89,7.27-23.3,12.07-10.74,32.16-4.5,35.71,11.22.84,3.71.09,5.82-4.28,5.29a29.61,29.61,0,0,0-5.49,0c-2.38.15-4-.39-5-3a6.57,6.57,0,0,0-8-4.38c-3.89.86-5.77,3.78-5.88,7.67-.12,4.32-.08,8.65,0,13,.06,4.06,1.66,7.27,5.9,8.11,3.92.78,6.88-1,8.24-4.77a3.12,3.12,0,0,1,3.73-2.34c1.16.11,2.33,0,3.49,0,8.54,0,9.44,1.46,5.68,9.25a21.84,21.84,0,0,1-25,11.88,21.54,21.54,0,0,1-16.4-20.67C163.72,204.09,163.76,201.42,163.76,198.76Z"/><path class="cls-1" d="M269.36,198.69c0-7.33.12-14.66-.05-22-.09-3.8,1.21-5.33,5.2-5.31,9.38,0,9.38-.13,9.38,9.07q0,12.5,0,25c0,6.81,0,6.82,7.08,6.83,3.33,0,6.67.12,10,0,3.06-.14,4,1.22,4.14,4.15.44,10,.53,10-9.23,10H276.38c-7,0-7,0-7-7.27Z"/><path class="cls-1" d="M305,188.22c0,4.33-.09,8.66,0,13,.08,2.88-.88,4.31-4,4.27-12.5-.13-10.19,1.08-10.35-9.78-.09-6.49.1-13-.06-19.48-.08-3.27.73-4.88,4.43-4.81,11.57.22,9.82-.91,9.94,9.82C305.07,183.56,305,185.89,305,188.22Z"/><path class="cls-1" d="M238.58,196.49c1.93.52,2.32,2.1,2.42,3.82.13,2.15-1.18,3.07-3.09,2.85-1.73-.2-2.56-1.4-2.24-3.21S236.32,196.63,238.58,196.49Z"/></g></g></svg>