<svg width="46" height="46" viewBox="0 0 46 46" fill="none" xmlns="http://www.w3.org/2000/svg">
<g clip-path="url(#clip0_351_2323)">
<path d="M46 23C46 10.2974 35.7026 0 23 0C10.2974 0 0 10.2974 0 23C0 34.4798 8.41072 43.9951 19.4062 45.7206V29.6484H13.5664V23H19.4062V17.9328C19.4062 12.1684 22.8401 8.98438 28.0937 8.98438C30.6093 8.98438 33.2422 9.43359 33.2422 9.43359V15.0938H30.342C27.485 15.0938 26.5937 16.8668 26.5937 18.6875V23H32.9727L31.9529 29.6484H26.5937V45.7206C37.5893 43.9951 46 34.4798 46 23Z" fill="#D2691E"/>
<path d="M46 23C46 10.2974 35.7026 0 23 0C10.2974 0 0 10.2974 0 23C0 34.4798 8.41072 43.9951 19.4062 45.7206V29.6484H13.5664V23H19.4062V17.9328C19.4062 12.1684 22.8401 8.98438 28.0937 8.98438C30.6093 8.98438 33.2422 9.43359 33.2422 9.43359V15.0938H30.342C27.485 15.0938 26.5937 16.8668 26.5937 18.6875V23H32.9727L31.9529 29.6484H26.5937V45.7206C37.5893 43.9951 46 34.4798 46 23Z" fill="#7C7B38"/>
<path d="M46 23C46 10.2974 35.7026 0 23 0C10.2974 0 0 10.2974 0 23C0 34.4798 8.41072 43.9951 19.4062 45.7206V29.6484H13.5664V23H19.4062V17.9328C19.4062 12.1684 22.8401 8.98438 28.0937 8.98438C30.6093 8.98438 33.2422 9.43359 33.2422 9.43359V15.0938H30.342C27.485 15.0938 26.5937 16.8668 26.5937 18.6875V23H32.9727L31.9529 29.6484H26.5937V45.7206C37.5893 43.9951 46 34.4798 46 23Z" fill="white"/>
</g>
<defs>
<clipPath id="clip0_351_2323">
<rect width="46" height="46" fill="white"/>
</clipPath>
</defs>
</svg>
