<svg width="50" height="50" viewBox="0 0 50 50" fill="none" xmlns="http://www.w3.org/2000/svg">
<path d="M24.9464 4.95369C31.5516 4.95369 32.3338 4.98267 34.9314 5.09861C37.3456 5.20488 38.6493 5.61064 39.5184 5.94877C40.6675 6.39317 41.498 6.93418 42.3575 7.79401C43.2266 8.66349 43.7577 9.48467 44.2019 10.6343C44.5399 11.5038 44.9455 12.8177 45.0517 15.2233C45.1676 17.8317 45.1966 18.6143 45.1966 25.2127C45.1966 31.8208 45.1676 32.6033 45.0517 35.2021C44.9455 37.6173 44.5399 38.9215 44.2019 39.791C43.7577 40.9407 43.2169 41.7715 42.3575 42.6313C41.4884 43.5008 40.6675 44.0322 39.5184 44.4766C38.6493 44.8147 37.336 45.2205 34.9314 45.3267C32.3241 45.4427 31.5419 45.4717 24.9464 45.4717C18.3411 45.4717 17.559 45.4427 14.9613 45.3267C12.5471 45.2205 11.2434 44.8147 10.3743 44.4766C9.22518 44.0322 8.3947 43.4912 7.53525 42.6313C6.66615 41.7619 6.13502 40.9407 5.69081 39.791C5.35283 38.9215 4.94725 37.6077 4.84102 35.2021C4.72514 32.5936 4.69617 31.8111 4.69617 25.2127C4.69617 18.6046 4.72514 17.8221 4.84102 15.2233C4.94725 12.808 5.35283 11.5038 5.69081 10.6343C6.13502 9.48467 6.6758 8.65383 7.53525 7.79401C8.40436 6.92452 9.22518 6.39317 10.3743 5.94877C11.2434 5.61064 12.5568 5.20488 14.9613 5.09861C17.559 4.98267 18.3411 4.95369 24.9464 4.95369ZM24.9464 0.5C18.2349 0.5 17.3948 0.528983 14.7585 0.644914C12.1319 0.760845 10.3261 1.18593 8.76166 1.79457C7.12967 2.43219 5.74876 3.27269 4.3775 4.6542C2.99658 6.02606 2.15645 7.40757 1.5191 9.03061C0.910726 10.6053 0.48583 12.4023 0.369949 15.03C0.254068 17.6771 0.225098 18.5176 0.225098 25.232C0.225098 31.9463 0.254068 32.7869 0.369949 35.4243C0.48583 38.0521 0.910726 39.8587 1.5191 41.4237C2.15645 43.0564 2.99658 44.4379 4.3775 45.8098C5.74876 47.1816 7.12967 48.0318 8.752 48.6598C10.3261 49.2684 12.1222 49.6935 14.7488 49.8094C17.3851 49.9254 18.2253 49.9543 24.9367 49.9543C31.6481 49.9543 32.4883 49.9254 35.1246 49.8094C37.7512 49.6935 39.557 49.2684 41.1214 48.6598C42.7437 48.0318 44.1247 47.1816 45.4959 45.8098C46.8672 44.4379 47.717 43.0564 48.3447 41.4334C48.953 39.8587 49.3779 38.0617 49.4938 35.4339C49.6097 32.7965 49.6387 31.956 49.6387 25.2417C49.6387 18.5273 49.6097 17.6868 49.4938 15.0494C49.3779 12.4216 48.953 10.615 48.3447 9.04993C47.7363 7.40757 46.8961 6.02606 45.5152 4.6542C44.144 3.28235 42.7631 2.43219 41.1407 1.80423C39.5667 1.19559 37.7705 0.770506 35.1439 0.654575C32.4979 0.528983 31.6578 0.5 24.9464 0.5Z" fill="white"/>
<path d="M24.9463 12.5273C17.9355 12.5273 12.2477 18.2176 12.2477 25.2315C12.2477 32.2453 17.9355 37.9356 24.9463 37.9356C31.9571 37.9356 37.6449 32.2453 37.6449 25.2315C37.6449 18.2176 31.9571 12.5273 24.9463 12.5273ZM24.9463 33.4723C20.398 33.4723 16.7091 29.7818 16.7091 25.2315C16.7091 20.6812 20.398 16.9907 24.9463 16.9907C29.4946 16.9907 33.1835 20.6812 33.1835 25.2315C33.1835 29.7818 29.4946 33.4723 24.9463 33.4723Z" fill="white"/>
<path d="M41.1116 12.0265C41.1116 13.6688 39.779 14.9924 38.147 14.9924C36.5053 14.9924 35.1824 13.6592 35.1824 12.0265C35.1824 10.3841 36.515 9.06055 38.147 9.06055C39.779 9.06055 41.1116 10.3938 41.1116 12.0265Z" fill="white"/>
</svg>
