<svg xmlns="http://www.w3.org/2000/svg" viewBox="0 0 407.88 58.44"><defs><style>.cls-1{fill:#7c7b38;}.cls-2{fill:#da7540;}.cls-3{fill:#da7541;}.cls-4{fill:#f6f6f3;}</style></defs><g id="Capa_2" data-name="Capa 2"><g id="Capa_1-2" data-name="Capa 1"><path class="cls-1" d="M.05,29C.05,21.33.15,13.68,0,6-.06,2.79,1.18,1.72,4.39,1.65c10-.23,10-.35,13.77,8.66,2.76,6.57,5.46,13.17,8.26,19.73.43,1,.64,2.44,2,2.61,1.86.24,2-1.57,2.47-2.63,3.11-7.15,6.45-14.23,9-21.58C41.71,3.22,44.39,1.17,50,1.58c7.29.53,7.32.13,7.32,7.45,0,14-.2,27.93.11,41.89.11,5-1.63,6.69-6.33,6.07a15.09,15.09,0,0,0-3.49,0c-3.49.37-4.59-1.17-4.73-4.59-.11-2.86,2.05-7.48-1.64-8.18-2.63-.49-3.19,4.48-4,7.14-1.38,4.79-4.27,5.7-8.85,5.8s-6.94-1.55-8.35-5.8c-.88-2.65-1.41-7.61-4-7.11-3.71.71-1.53,5.32-1.65,8.17C14.33,55.9,13,57.06,9.65,57c-11-.17-9.52.87-9.6-9.09C0,41.61.05,35.29.05,29Z"/><path class="cls-2" d="M358.75,29.33c0,7.32-.1,14.64.05,22,.08,3.89-1.17,5.48-5.4,5.82-6.82.55-11.48-1.33-14.13-8-1.34-3.35-3.58-6.36-5.45-9.49-.85-1.42-1.67-3.13-3.75-2.63s-1.92,2.4-1.92,4.05c0,3.83-.13,7.66,0,11.48.14,3.26-1.33,4.32-4.44,4.46-10.22.48-10.21.57-10.21-9.77q0-19.47,0-38.92c0-6.39.25-6.11,6.29-6.72,6.41-.64,10.29,1.6,12.78,7.47,1.54,3.64,4,6.91,6,10.34.88,1.48,1.89,3,3.89,2.39S343.94,19.41,344,18c.06-3.83.18-7.66,0-11.48s1.46-4.85,5.05-4.87c9.75-.06,9.75-.18,9.75,9.72Z"/><path class="cls-1" d="M132.17,57H113.71c-2.66,0-5.5.38-6.94-2.65s.62-5.07,2.16-7.16c6.29-8.57,12.68-17.06,19-25.62.83-1.13,2.4-2.15,1.62-3.86S126.88,16,125.2,16c-5,0-10-.11-15,0-3.06.09-4.1-1.22-4.08-4.16.1-11.94-.81-10.1,9.54-10.17,11.31-.07,22.62,0,33.94,0,2.72,0,5.92-.86,7.43,2.52,1.37,3.07-.47,5.36-2.2,7.67q-9.44,12.56-18.78,25.16c-.86,1.16-2.37,2.24-1.63,3.9.8,1.81,2.66,1.68,4.33,1.68,5,0,10,.11,15,0,2.78-.08,3.72,1,3.95,3.74.91,10.36.77,10.61-9.56,10.61Z"/><path class="cls-1" d="M64.19,29.45c0-7.82.13-15.65-.06-23.46-.07-3.3,1.14-4.38,4.36-4.33,9,.14,18,.16,27,0,3.17-.06,4.21,1.18,3.9,4.12a29.78,29.78,0,0,0,0,3c0,8.37.54,7.19-7.16,7.26-2.3,0-5-.44-5,3.18,0,4,3.11,2.41,5.13,2.81,2.29.44,5.83-1.42,6.64,1.62a25.35,25.35,0,0,1,0,11.84c-.35,1.5-2.19,1.17-3.49,1.2-2,0-4,0-6,.06-1.66.05-2.26,1.06-2.26,2.64s.24,2.69,1.87,3.08c.63.16,1.32.11,2,.22,2.69.45,6.81-1.48,7.8,1.14,1.28,3.35.5,7.52.4,11.34,0,1.79-1.66,1.8-3,1.8-9.49,0-19,0-28.48,0-3,0-3.6-1.49-3.57-4.08C64.25,45.09,64.19,37.27,64.19,29.45Z"/><path class="cls-1" d="M239.77,1.71c10.88.15,9.53-1.62,12.51,9.54,3.65,13.64,7.25,27.29,11.11,40.87,1,3.62.27,5-3.48,4.86a48.61,48.61,0,0,0-6.5,0c-2.88.27-4.5-1-4.82-3.71-.48-4-2.81-5.26-6.57-4.93-2.15.19-4.33,0-6.49,0s-4.06.81-4.31,3.22c-.49,4.81-3.34,5.57-7.6,5.44-9-.29-9-.08-6.7-8.5q5.33-19.73,10.64-39.44c2-7.42,2-7.41,9.71-7.41Z"/><path class="cls-2" d="M365.28,29c0-7.66.1-15.32,0-23-.06-3.2,1-4.74,4.32-4.35.17,0,.33,0,.5,0,11.73.11,9.71-1.23,10,9.66,0,1.82-1,4.51,1.61,5.12,2.15.49,2.6-2.17,3.72-3.5a13.68,13.68,0,0,0,2.24-3.29c3.09-7.34,8.89-9.07,16.14-8,1.43.21,3.16-.37,3.94,1.4.64,1.46-.49,2.51-1.22,3.57-4,5.91-7.88,12-12.23,17.63-2.85,3.72-2.56,6.58.16,10.18,4.32,5.69,8.24,11.69,12.2,17.65,2.3,3.47,1.56,4.23-2.54,4.9-8.22,1.36-13.57-1.77-17.2-9.11-1.13-2.28-2.37-6.47-5.35-5.65-3.22.88-.91,4.94-1.5,7.53-.52,2.29,1.36,5.78-1.61,6.69a21.87,21.87,0,0,1-11.82,0c-1.68-.45-1.27-2.5-1.28-4C365.27,44.67,365.28,36.85,365.28,29Z"/><path class="cls-1" d="M164.35,28.67c.12-2.94-.26-6.76.48-10.56a21.94,21.94,0,0,1,42.82-1.79c1.35,4.86.82,5.62-4,5.68-1.83,0-3.67-.09-5.49,0-2.55.17-4.19-.32-5.28-3.16-1.34-3.46-4.55-4.9-8.23-3.94s-5.46,3.57-5.46,7.37c0,4.49,0,9,0,13.47,0,4,1.6,6.92,5.47,7.9s7-.61,8.44-4.37c.82-2.08,2-2.85,4.11-2.64,1,.09,2,0,3,0,9,0,10,1.53,5.86,9.71A21.88,21.88,0,0,1,181.84,58C171.94,55.88,165,47.6,164.37,37,164.22,34.53,164.35,32,164.35,28.67Z"/><path class="cls-2" d="M271,29.11c0-7.48.13-15-.05-22.43-.09-3.58,1.06-5.07,4.83-5,11.2.14,9.45-.43,9.51,9.22,0,8.64.12,17.28,0,25.91-.08,4.26,1.63,6.11,5.91,5.92,3.65-.17,7.32.14,11-.09s5.19,1.43,4.87,5c-.05.5,0,1,0,1.5C307,57,307,57,299.35,57c-7.82,0-15.63-.1-23.44,0-3.62.06-5.06-1.27-5-5C271.14,44.39,271,36.75,271,29.11Z"/><path class="cls-3" d="M292.29,18.62c0-4,.16-8,0-12-.19-3.53.9-5.1,4.75-5,11.12.25,10-1,10,9.84,0,6.14-.19,12.3.07,18.43.18,4.26-1.2,6-5.67,5.86-10.15-.27-9.08.72-9.11-9.17C292.28,23.94,292.29,21.28,292.29,18.62Z"/><path class="cls-4" d="M239.42,26.77c2.21.08,2.64,1.7,2.91,3.37s-.32,3-2.17,3.2c-1.68.21-3.1-.39-3.16-2.25S237.14,27.38,239.42,26.77Z"/></g></g></svg>