<svg width="50" height="51" viewBox="0 0 50 51" fill="none" xmlns="http://www.w3.org/2000/svg">
<path d="M25.2292 32.7033L17.1458 40.9483C16.1671 41.9118 14.8601 42.4502 13.5 42.4502C12.1399 42.4502 10.8328 41.9118 9.85415 40.9483C9.37416 40.4607 8.9933 39.8811 8.73343 39.243C8.47355 38.6048 8.33978 37.9206 8.33978 37.2296C8.33978 36.5386 8.47355 35.8544 8.73343 35.2162C8.9933 34.578 9.37416 33.9985 9.85415 33.5108L17.9375 25.2658C18.3298 24.8657 18.5502 24.323 18.5502 23.7571C18.5502 23.1912 18.3298 22.6485 17.9375 22.2483C17.5452 21.8482 17.0131 21.6234 16.4583 21.6234C15.9035 21.6234 15.3715 21.8482 14.9792 22.2483L6.89582 30.5146C5.26739 32.3225 4.38669 34.7023 4.43764 37.1568C4.48859 39.6114 5.46724 41.951 7.16922 43.687C8.8712 45.423 11.1649 46.4212 13.5713 46.4732C15.9778 46.5251 18.3108 45.6268 20.0833 43.9658L28.1875 35.7208C28.5798 35.3207 28.8002 34.778 28.8002 34.2121C28.8002 33.6462 28.5798 33.1035 28.1875 32.7033C27.7952 32.3032 27.2631 32.0784 26.7083 32.0784C26.1535 32.0784 25.6215 32.3032 25.2292 32.7033V32.7033ZM43.1042 7.03334C41.3516 5.25686 38.9812 4.25977 36.5104 4.25977C34.0396 4.25977 31.6692 5.25686 29.9167 7.03334L21.8125 15.2783C21.6182 15.4765 21.4642 15.7117 21.359 15.9706C21.2539 16.2294 21.1998 16.5069 21.1998 16.7871C21.1998 17.0673 21.2539 17.3447 21.359 17.6036C21.4642 17.8625 21.6182 18.0977 21.8125 18.2958C22.0067 18.494 22.2373 18.6511 22.4911 18.7584C22.7449 18.8656 23.0169 18.9208 23.2917 18.9208C23.5664 18.9208 23.8384 18.8656 24.0922 18.7584C24.346 18.6511 24.5766 18.494 24.7708 18.2958L32.8542 10.0508C33.8328 9.08742 35.1399 8.54901 36.5 8.54901C37.8601 8.54901 39.1671 9.08742 40.1458 10.0508C40.6258 10.5385 41.0067 11.118 41.2665 11.7562C41.5264 12.3944 41.6602 13.0786 41.6602 13.7696C41.6602 14.4606 41.5264 15.1448 41.2665 15.783C41.0067 16.4211 40.6258 17.0007 40.1458 17.4883L32.0625 25.7333C31.8672 25.9309 31.7122 26.1659 31.6065 26.4249C31.5007 26.6838 31.4462 26.9616 31.4462 27.2421C31.4462 27.5226 31.5007 27.8004 31.6065 28.0593C31.7122 28.3183 31.8672 28.5533 32.0625 28.7508C32.2562 28.95 32.4866 29.1081 32.7405 29.216C32.9943 29.3239 33.2666 29.3794 33.5417 29.3794C33.8167 29.3794 34.089 29.3239 34.3429 29.216C34.5967 29.1081 34.8271 28.95 35.0208 28.7508L43.1042 20.4846C44.8458 18.697 45.8233 16.2792 45.8233 13.759C45.8233 11.2388 44.8458 8.82093 43.1042 7.03334V7.03334ZM18.3958 32.2358C18.5905 32.4328 18.8214 32.5886 19.0752 32.6944C19.329 32.8001 19.6008 32.8537 19.875 32.8521C20.1492 32.8537 20.421 32.8001 20.6748 32.6944C20.9286 32.5886 21.1595 32.4328 21.3542 32.2358L31.6042 21.7808C31.9965 21.3807 32.2168 20.838 32.2168 20.2721C32.2168 19.7062 31.9965 19.1635 31.6042 18.7633C31.2119 18.3632 30.6798 18.1384 30.125 18.1384C29.5702 18.1384 29.0381 18.3632 28.6458 18.7633L18.3958 29.2183C18.2006 29.4159 18.0456 29.6509 17.9398 29.9099C17.834 30.1688 17.7796 30.4466 17.7796 30.7271C17.7796 31.0076 17.834 31.2854 17.9398 31.5443C18.0456 31.8033 18.2006 32.0383 18.3958 32.2358Z" fill="white"/>
</svg>
