<svg width="39" height="39" viewBox="0 0 39 39" fill="none" xmlns="http://www.w3.org/2000/svg">
<path d="M9.75 3.25L4.875 9.75V32.5C4.875 33.362 5.21741 34.1886 5.8269 34.7981C6.4364 35.4076 7.26305 35.75 8.125 35.75H30.875C31.737 35.75 32.5636 35.4076 33.1731 34.7981C33.7826 34.1886 34.125 33.362 34.125 32.5V9.75L29.25 3.25H9.75Z" stroke="#222222" stroke-width="2" stroke-linecap="round" stroke-linejoin="round"/>
<path d="M9.75 3.25L4.875 9.75V32.5C4.875 33.362 5.21741 34.1886 5.8269 34.7981C6.4364 35.4076 7.26305 35.75 8.125 35.75H30.875C31.737 35.75 32.5636 35.4076 33.1731 34.7981C33.7826 34.1886 34.125 33.362 34.125 32.5V9.75L29.25 3.25H9.75Z" stroke="#222222" stroke-width="2" stroke-linecap="round" stroke-linejoin="round"/>
<path d="M26 16.25C26 17.9739 25.3152 19.6272 24.0962 20.8462C22.8772 22.0652 21.2239 22.75 19.5 22.75C17.7761 22.75 16.1228 22.0652 14.9038 20.8462C13.6848 19.6272 13 17.9739 13 16.25" stroke="#222222" stroke-width="2" stroke-linecap="round" stroke-linejoin="round"/>
<path d="M26 16.25C26 17.9739 25.3152 19.6272 24.0962 20.8462C22.8772 22.0652 21.2239 22.75 19.5 22.75C17.7761 22.75 16.1228 22.0652 14.9038 20.8462C13.6848 19.6272 13 17.9739 13 16.25" stroke="#222222" stroke-width="2" stroke-linecap="round" stroke-linejoin="round"/>
<path d="M4.875 9.75H34.125" stroke="#222222" stroke-width="2" stroke-linecap="round" stroke-linejoin="round"/>
<path d="M4.875 9.75H34.125" stroke="#222222" stroke-width="2" stroke-linecap="round" stroke-linejoin="round"/>
</svg>
